:SAMPLES-PER-SECOND 30
:FULLY-SPECIFIED
:DEGREES
235
root  38.8782 39.7519 10.5231 -148.433 86.4722 -159.655
RightUpLeg  -23.8423 -12.0468 1.59824
RightLeg  13.0255 -15.8813 2.69351
RightFoot  -3.14784 0.112403 -1.85184
RightToes  0.00048216 0.542163 -0.142577
Spine  52.9934 -4.97218 10.1559
Spine1  6.79484 -0.0800676 -0.775871
HEad  -16.775 -1.6142 -4.09374
LeftShoulder1  12.1122 -21.073 -42.7796
LeftArm  -11.9443 -27.1761 -27.093
LeftForeArm  23.9453 -11.3021 -6.29368
LeftHand  -0.25398 0.0180481 5.50724
RightShoulder  7.53327 14.9569 34.8187
RightArm  -4.09314 31.7903 29.2818
RightForeArm  -22.7028 11.3634 10.3762
RightHand  -2.60813 8.02892 -22.7083
LeftUpLeg  -32.7924 21.2114 -5.67549
LeftLeg  22.038 2.89232 1.62132
LeftFoot  2.86243 -0.00190734 -0.149281
LeftToes  1.06246e-005 4.65855e-005 -8.185e-006
236
root  38.8133 39.6503 10.4769 -150.175 86.5685 -162.583
RightUpLeg  -26.5022 -14.2197 2.96679
RightLeg  14.6334 -13.4088 1.80988
RightFoot  -2.25186 0.276312 -3.66087
RightToes  0.00048216 0.542163 -0.142577
Spine  54.1913 -4.88568 9.82262
Spine1  6.94597 -0.0681926 -0.726063
HEad  -19.0812 -2.17838 -4.02802
LeftShoulder1  12.1999 -21.3872 -42.5228
LeftArm  -12.5893 -30.838 -25.5287
LeftForeArm  23.9347 -11.0184 -6.48957
LeftHand  -0.25398 0.0180481 5.50724
RightShoulder  7.32089 14.9215 33.7579
RightArm  -7.3648 35.3868 29.0558
RightForeArm  -18.7068 8.63996 10.4971
RightHand  -2.68167 8.72097 -22.2329
LeftUpLeg  -34.5716 19.5989 -5.67687
LeftLeg  21.289 1.74165 1.10665
LeftFoot  1.27374 0.160638 -1.50011
LeftToes  1.06246e-005 4.65855e-005 -8.185e-006
237
root  38.7848 39.5178 10.3538 -144.403 87.011 -158.4
RightUpLeg  -29.9337 -16.8525 5.42205
RightLeg  16.3697 -9.55731 0.72224
RightFoot  -1.60976 0.425458 -5.12755
RightToes  0.00048216 0.542163 -0.142577
Spine  55.2134 -4.87581 9.70336
Spine1  7.70043 0.240523 -1.18433
HEad  -21.293 -2.82334 -4.21536
LeftShoulder1  12.4473 -21.8545 -42.5838
LeftArm  -14.0852 -35.0295 -23.4861
LeftForeArm  24.0131 -10.3865 -6.67157
LeftHand  -0.25398 0.0180481 5.50724
RightShoulder  7.18116 15.021 32.792
RightArm  -10.5487 40.3082 28.0293
RightForeArm  -14.2984 3.98315 10.1901
RightHand  -2.58035 8.6147 -21.582
LeftUpLeg  -35.7697 19.7785 -6.4073
LeftLeg  17.9433 0.381772 0.331699
LeftFoot  0.531317 0.0561619 -0.585813
LeftToes  1.06246e-005 4.65855e-005 -8.185e-006
238
root  38.7689 39.297 10.156 -127.906 87.4967 -144.003
RightUpLeg  -34.5513 -19.8071 9.1026
RightLeg  18.6841 -4.61508 -0.458764
RightFoot  -1.60997 0.471489 -5.65827
RightToes  0.00048216 0.542163 -0.142577
Spine  56.5955 -4.93233 9.61995
Spine1  7.73527 0.669768 -1.80114
HEad  -23.3121 -3.32179 -4.86807
LeftShoulder1  12.4499 -22.1751 -42.0153
LeftArm  -15.9712 -38.8733 -21.9638
LeftForeArm  23.6575 -9.79297 -6.70081
LeftHand  -0.25398 0.0180481 5.50724
RightShoulder  6.92248 15.1237 31.1813
RightArm  -12.6312 45.3955 27.2759
RightForeArm  -11.1382 -0.721863 9.44862
RightHand  -2.216 7.28766 -20.4885
LeftUpLeg  -38.1617 20.9799 -7.75323
LeftLeg  16.158 -0.106358 -0.352438
LeftFoot  1.56839 -0.256181 2.15342
LeftToes  1.06246e-005 4.65855e-005 -8.185e-006
239
root  38.7328 39.0081 9.95242 -116.213 87.8707 -134.635
RightUpLeg  -39.4812 -20.7733 11.4419
RightLeg  21.6297 -2.18492 -1.33656
RightFoot  -2.08684 0.44652 -5.68257
RightToes  0.00048216 0.542163 -0.142577
Spine  58.4075 -4.90005 9.11471
Spine1  6.96568 0.825662 -1.99002
HEad  -25.5415 -3.4601 -4.89398
LeftShoulder1  12.2008 -22.4012 -40.711
LeftArm  -18.1311 -42.727 -20.7196
LeftForeArm  23.1769 -9.09862 -6.61266
LeftHand  -0.25398 0.0180481 5.50724
RightShoulder  6.58581 15.3021 29.002
RightArm  -15.4863 49.7875 26.3991
RightForeArm  -8.91604 -3.7955 8.59015
RightHand  -1.7245 5.45608 -18.6679
LeftUpLeg  -42.5111 22.9713 -10.822
LeftLeg  17.6762 -1.74494 -0.695537
LeftFoot  2.75316 -0.596712 4.707
LeftToes  1.06246e-005 4.65855e-005 -8.185e-006
240
root  38.6868 38.6851 9.79407 -124.168 88.2219 -144.782
RightUpLeg  -43.7653 -19.667 11.1848
RightLeg  25.0063 -3.21543 -1.86406
RightFoot  -2.84049 0.41637 -5.85441
RightToes  0.00048216 0.542163 -0.142577
Spine  60.2024 -4.80316 8.62193
Spine1  6.21169 0.738543 -1.77647
HEad  -28.3638 -4.02518 -3.93907
LeftShoulder1  11.961 -23.0464 -38.7584
LeftArm  -20.9305 -47.3031 -19.2941
LeftForeArm  23.2 -7.81489 -6.36067
LeftHand  -0.25398 0.0180481 5.50724
RightShoulder  6.34502 15.5833 27.1702
RightArm  -19.6876 53.2873 23.4466
RightForeArm  -8.59395 -4.74837 7.76686
RightHand  -1.36758 4.2569 -16.7063
LeftUpLeg  -47.1011 23.6784 -13.9602
LeftLeg  20.5641 -3.31514 -1.00391
LeftFoot  2.66856 -0.725714 5.77162
LeftToes  1.06246e-005 4.65855e-005 -8.185e-006
